3DGaitModel2392_states
version=1
nRows=4
nColumns=251
inDegrees=yes

# SIMM Motion File Header:
name 3DGaitModel2392_states
datacolumns 251
datarows 4
otherdata 1
range 0.03333333 0.03600000
endheader
time	pelvis_tilt	pelvis_list	pelvis_rotation	pelvis_tx	pelvis_ty	pelvis_tz	hip_flexion_r	hip_adduction_r	hip_rotation_r	knee_angle_r	knee_adduction_r	knee_rotation_r	knee_anterior_posterior_r	knee_inferior_superior_r	knee_medial_lateral_r	ankle_angle_r	subtalar_angle_r	mtp_angle_r	hip_flexion_l	hip_adduction_l	hip_rotation_l	knee_angle_l	knee_adduction_l	knee_rotation_l	knee_anterior_posterior_l	knee_inferior_superior_l	knee_medial_lateral_l	ankle_angle_l	subtalar_angle_l	mtp_angle_l	lumbar_extension	lumbar_bending	lumbar_rotation	pelvis_tilt_u	pelvis_list_u	pelvis_rotation_u	pelvis_tx_u	pelvis_ty_u	pelvis_tz_u	hip_flexion_r_u	hip_adduction_r_u	hip_rotation_r_u	knee_angle_r_u	knee_adduction_r_u	knee_rotation_r_u	knee_anterior_posterior_r_u	knee_inferior_superior_r_u	knee_medial_lateral_r_u	ankle_angle_r_u	subtalar_angle_r_u	mtp_angle_r_u	hip_flexion_l_u	hip_adduction_l_u	hip_rotation_l_u	knee_angle_l_u	knee_adduction_l_u	knee_rotation_l_u	knee_anterior_posterior_l_u	knee_inferior_superior_l_u	knee_medial_lateral_l_u	ankle_angle_l_u	subtalar_angle_l_u	mtp_angle_l_u	lumbar_extension_u	lumbar_bending_u	lumbar_rotation_u	glut_med1_r.activation	glut_med1_r.fiber_length	glut_med2_r.activation	glut_med2_r.fiber_length	glut_med3_r.activation	glut_med3_r.fiber_length	glut_min1_r.activation	glut_min1_r.fiber_length	glut_min2_r.activation	glut_min2_r.fiber_length	glut_min3_r.activation	glut_min3_r.fiber_length	semimem_r.activation	semimem_r.fiber_length	semiten_r.activation	semiten_r.fiber_length	bifemlh_r.activation	bifemlh_r.fiber_length	bifemsh_r.activation	bifemsh_r.fiber_length	sar_r.activation	sar_r.fiber_length	add_long_r.activation	add_long_r.fiber_length	add_brev_r.activation	add_brev_r.fiber_length	add_mag1_r.activation	add_mag1_r.fiber_length	add_mag2_r.activation	add_mag2_r.fiber_length	add_mag3_r.activation	add_mag3_r.fiber_length	tfl_r.activation	tfl_r.fiber_length	pect_r.activation	pect_r.fiber_length	grac_r.activation	grac_r.fiber_length	glut_max1_r.activation	glut_max1_r.fiber_length	glut_max2_r.activation	glut_max2_r.fiber_length	glut_max3_r.activation	glut_max3_r.fiber_length	iliacus_r.activation	iliacus_r.fiber_length	psoas_r.activation	psoas_r.fiber_length	quad_fem_r.activation	quad_fem_r.fiber_length	gem_r.activation	gem_r.fiber_length	peri_r.activation	peri_r.fiber_length	rect_fem_r.activation	rect_fem_r.fiber_length	vas_med_r.activation	vas_med_r.fiber_length	vas_int_r.activation	vas_int_r.fiber_length	vas_lat_r.activation	vas_lat_r.fiber_length	med_gas_r.activation	med_gas_r.fiber_length	lat_gas_r.activation	lat_gas_r.fiber_length	soleus_r.activation	soleus_r.fiber_length	tib_post_r.activation	tib_post_r.fiber_length	flex_dig_r.activation	flex_dig_r.fiber_length	flex_hal_r.activation	flex_hal_r.fiber_length	tib_ant_r.activation	tib_ant_r.fiber_length	per_brev_r.activation	per_brev_r.fiber_length	per_long_r.activation	per_long_r.fiber_length	per_tert_r.activation	per_tert_r.fiber_length	ext_dig_r.activation	ext_dig_r.fiber_length	ext_hal_r.activation	ext_hal_r.fiber_length	glut_med1_l.activation	glut_med1_l.fiber_length	glut_med2_l.activation	glut_med2_l.fiber_length	glut_med3_l.activation	glut_med3_l.fiber_length	glut_min1_l.activation	glut_min1_l.fiber_length	glut_min2_l.activation	glut_min2_l.fiber_length	glut_min3_l.activation	glut_min3_l.fiber_length	semimem_l.activation	semimem_l.fiber_length	semiten_l.activation	semiten_l.fiber_length	bifemlh_l.activation	bifemlh_l.fiber_length	bifemsh_l.activation	bifemsh_l.fiber_length	sar_l.activation	sar_l.fiber_length	add_long_l.activation	add_long_l.fiber_length	add_brev_l.activation	add_brev_l.fiber_length	add_mag1_l.activation	add_mag1_l.fiber_length	add_mag2_l.activation	add_mag2_l.fiber_length	add_mag3_l.activation	add_mag3_l.fiber_length	tfl_l.activation	tfl_l.fiber_length	pect_l.activation	pect_l.fiber_length	grac_l.activation	grac_l.fiber_length	glut_max1_l.activation	glut_max1_l.fiber_length	glut_max2_l.activation	glut_max2_l.fiber_length	glut_max3_l.activation	glut_max3_l.fiber_length	iliacus_l.activation	iliacus_l.fiber_length	psoas_l.activation	psoas_l.fiber_length	quad_fem_l.activation	quad_fem_l.fiber_length	gem_l.activation	gem_l.fiber_length	peri_l.activation	peri_l.fiber_length	rect_fem_l.activation	rect_fem_l.fiber_length	vas_med_l.activation	vas_med_l.fiber_length	vas_int_l.activation	vas_int_l.fiber_length	vas_lat_l.activation	vas_lat_l.fiber_length	med_gas_l.activation	med_gas_l.fiber_length	lat_gas_l.activation	lat_gas_l.fiber_length	soleus_l.activation	soleus_l.fiber_length	tib_post_l.activation	tib_post_l.fiber_length	flex_dig_l.activation	flex_dig_l.fiber_length	flex_hal_l.activation	flex_hal_l.fiber_length	tib_ant_l.activation	tib_ant_l.fiber_length	per_brev_l.activation	per_brev_l.fiber_length	per_long_l.activation	per_long_l.fiber_length	per_tert_l.activation	per_tert_l.fiber_length	ext_dig_l.activation	ext_dig_l.fiber_length	ext_hal_l.activation	ext_hal_l.fiber_length	ercspn_r.activation	ercspn_r.fiber_length	ercspn_l.activation	ercspn_l.fiber_length	intobl_r.activation	intobl_r.fiber_length	intobl_l.activation	intobl_l.fiber_length	extobl_r.activation	extobl_r.fiber_length	extobl_l.activation	extobl_l.fiber_length
      0.03333333	      0.00000000	     -0.00000000	     -0.00000000	     -0.00057798	      0.00000000	      0.00049253	      0.38708990	      1.55833889	     -0.37695168	     -4.00878916	     -0.17908799	      2.27788541	      0.00985738	     -0.37346456	      0.01244297	     -9.30358903	      2.58782027	     22.65857252	      0.28017837	     -0.72266283	      1.45632051	     -2.59721483	      6.14306404	      4.65062658	      0.00536442	     -0.39621919	      0.01301937	     -2.06783714	      5.68285158	     17.54295324	     -0.00000000	     -0.00000000	     -0.00000000	      0.00000000	     -0.00000000	     -0.00000000	     -0.03459566	      0.00000000	      0.00354605	     48.26677631	     19.95628072	    -12.59129812	    -96.45837973	    -95.81415406	    -68.03008060	      0.02750475	      1.29320003	     -0.07137641	   -500.53989138	    108.96743289	   1646.09493525	     20.78738782	      3.84309232	     42.90641924	    -36.36291302	     92.92586730	    -27.96684888	      0.05452741	      0.07019762	     -0.11290218	   -134.78776178	   -100.54576047	   1167.60570839	     -0.00000000	     -0.00000000	     -0.00000000	      0.03502470	      0.05398713	      0.03502470	      0.08357463	      0.03502470	      0.06513381	      0.03502470	      0.06873991	      0.03502470	      0.05757115	      0.03502470	      0.03834739	      0.90554364	      0.07538984	      0.90554364	      0.17964272	      0.90554364	      0.07363959	      0.90554364	      0.14834000	      0.90554364	      0.44441828	      0.03502470	      0.10462418	      0.03502470	      0.11337237	      0.03502470	      0.08546641	      0.03502470	      0.08864981	      0.03502470	      0.08915833	      0.03502470	      0.09751142	      0.03502470	      0.09061968	      0.90554364	      0.28555481	      0.03502470	      0.08667994	      0.03502470	      0.08621092	      0.03502470	      0.08898464	      0.03502470	      0.10657768	      0.03502470	      0.10046146	      0.03502470	      0.05449129	      0.03502470	      0.02467687	      0.03502470	      0.02623769	      0.03502470	      0.09379075	      0.03502470	      0.08684151	      0.03502470	      0.08546641	      0.03502470	      0.08317643	      0.90554364	      0.06198836	      0.90554364	      0.06578052	      0.03502470	      0.05045664	      0.03502470	      0.03249186	      0.03502470	      0.03431082	      0.03502470	      0.04339309	      0.03502470	      0.09060318	      0.03502470	      0.05045606	      0.03502470	      0.05020371	      0.03502470	      0.08451788	      0.03502470	      0.09851013	      0.03502470	      0.10577509	      0.03502470	      0.05398713	      0.03502470	      0.08357463	      0.03502470	      0.06513381	      0.03502470	      0.06850053	      0.03502470	      0.05650709	      0.03502470	      0.03834739	      0.03502470	      0.07980433	      0.03502470	      0.20832983	      0.03502470	      0.08985611	      0.03502470	      0.16672061	      0.03502470	      0.47166690	      0.03502470	      0.10698355	      0.03502470	      0.11585856	      0.03502470	      0.08546641	      0.03502470	      0.08864981	      0.03502470	      0.09014251	      0.03502470	      0.10641852	      0.03502470	      0.09061968	      0.03502470	      0.31627761	      0.03502470	      0.08667994	      0.03502470	      0.08621092	      0.03502470	      0.09129960	      0.03502470	      0.10660771	      0.03502470	      0.10049857	      0.03502470	      0.05449129	      0.03502470	      0.02591534	      0.03502470	      0.02623769	      0.03502470	      0.10196031	      0.03502470	      0.08684151	      0.03502470	      0.08546641	      0.03502470	      0.08317643	      0.03502470	      0.06053147	      0.03502470	      0.06453596	      0.03502470	      0.05045664	      0.03502470	      0.03236764	      0.03502470	      0.03431082	      0.03502470	      0.04339309	      0.03502470	      0.09060318	      0.03502470	      0.05185734	      0.03502470	      0.05196964	      0.03502470	      0.08217678	      0.03502470	      0.09641149	      0.03502470	      0.10240464	      0.03502470	      0.11948113	      0.03502470	      0.11948113	      0.03502470	      0.09832261	      0.03502470	      0.09832261	      0.03502470	      0.13268861	      0.03502470	      0.13268861
      0.03400000	      0.00000000	     -0.00000000	     -0.00000000	     -0.00060128	      0.00000000	      0.00049469	      0.42017691	      1.57094360	     -0.38506496	     -4.07270251	     -0.24423732	      2.23219478	      0.00986303	     -0.37259846	      0.01238391	     -9.64034788	      2.66036394	     23.77341269	      0.29409970	     -0.71985740	      1.48484993	     -2.62154492	      6.20432895	      4.63180473	      0.00540067	     -0.39617208	      0.01294096	     -2.15898001	      5.61251615	     18.33058598	     -0.00000000	     -0.00000000	     -0.00000000	      0.00000000	     -0.00000000	     -0.00000000	     -0.03531428	      0.00000000	      0.00290874	     51.00731970	     17.84999676	    -11.73239553	    -95.26738854	    -99.56506994	    -69.01931180	     -0.01078967	      1.30488180	     -0.10581735	   -509.64798511	    108.40791006	   1698.36849419	     20.97206996	      4.57374447	     42.68291662	    -36.62507414	     90.91041894	    -28.48458740	      0.05429020	      0.07109087	     -0.12229383	   -138.60399875	   -110.35839642	   1195.20452732	     -0.00000000	     -0.00000000	     -0.00000000	      0.03479538	      0.05387603	      0.03479538	      0.08341905	      0.03479538	      0.06500126	      0.03479538	      0.06873746	      0.03479538	      0.05758444	      0.03479538	      0.03826843	      0.90886777	      0.07489362	      0.90886777	      0.17881042	      0.90886777	      0.07296349	      0.90886777	      0.14753583	      0.90886777	      0.44358200	      0.03479538	      0.10459006	      0.03479538	      0.11335145	      0.03479538	      0.08530622	      0.03479538	      0.08842702	      0.03479538	      0.08912244	      0.03479538	      0.09726256	      0.03479538	      0.09043555	      0.90886777	      0.28468176	      0.03479538	      0.08641849	      0.03479538	      0.08594026	      0.03479538	      0.08898106	      0.03479538	      0.10656503	      0.03479538	      0.10045788	      0.03479538	      0.05437916	      0.03479538	      0.02466542	      0.03479538	      0.02618366	      0.03479538	      0.09358085	      0.03479538	      0.08667764	      0.03479538	      0.08530622	      0.03479538	      0.08302176	      0.90886777	      0.06160884	      0.90886777	      0.06537721	      0.03479538	      0.05035277	      0.03479538	      0.03243223	      0.03479538	      0.03424018	      0.03479538	      0.04330374	      0.03479538	      0.09042274	      0.03479538	      0.05035639	      0.03479538	      0.05016087	      0.03479538	      0.08458637	      0.03479538	      0.09862262	      0.03479538	      0.10584659	      0.03479538	      0.05387603	      0.03479538	      0.08341905	      0.03479538	      0.06500126	      0.03479538	      0.06836280	      0.03479538	      0.05639087	      0.03479538	      0.03826843	      0.03479538	      0.07965704	      0.03479538	      0.20828909	      0.03479538	      0.08972074	      0.03479538	      0.16667778	      0.03479538	      0.47160463	      0.03479538	      0.10697618	      0.03479538	      0.11585264	      0.03479538	      0.08530622	      0.03479538	      0.08842702	      0.03479538	      0.09012042	      0.03479538	      0.10639485	      0.03479538	      0.09043555	      0.03479538	      0.31621526	      0.03479538	      0.08641849	      0.03479538	      0.08594026	      0.03479538	      0.09132084	      0.03479538	      0.10660025	      0.03479538	      0.10049813	      0.03479538	      0.05437916	      0.03479538	      0.02593109	      0.03479538	      0.02618366	      0.03479538	      0.10193744	      0.03479538	      0.08667764	      0.03479538	      0.08530622	      0.03479538	      0.08302176	      0.03479538	      0.06040730	      0.03479538	      0.06440443	      0.03479538	      0.05035277	      0.03479538	      0.03234497	      0.03479538	      0.03424018	      0.03479538	      0.04330374	      0.03479538	      0.09042274	      0.03479538	      0.05182962	      0.03479538	      0.05194472	      0.03479538	      0.08219863	      0.03479538	      0.09639153	      0.03479538	      0.10238979	      0.03479538	      0.11948204	      0.03479538	      0.11948204	      0.03479538	      0.09832439	      0.03479538	      0.09832439	      0.03479538	      0.13269207	      0.03479538	      0.13269207
      0.03500000	      0.00000000	     -0.00000000	     -0.00000000	     -0.00063714	      0.00000000	      0.00049711	      0.47331742	      1.58716414	     -0.39608109	     -4.16698367	     -0.34648332	      2.16248981	      0.00982204	     -0.37128573	      0.01225177	    -10.15657967	      2.76763132	     25.51109061	      0.31519289	     -0.71473351	      1.52736964	     -2.65835573	      6.29391761	      4.60299366	      0.00545505	     -0.39610053	      0.01281184	     -2.30029017	      5.49526809	     19.54608093	     -0.00000000	     -0.00000000	     -0.00000000	      0.00000000	     -0.00000000	     -0.00000000	     -0.03639987	     -0.00000000	      0.00192828	     55.31310057	     14.56451193	    -10.26638960	    -93.21472699	   -105.29195405	    -70.44348344	     -0.07210563	      1.32025827	     -0.15895493	   -522.97374736	    106.84656999	   1777.64180335	     21.20673733	      5.67472924	     42.35845962	    -36.99047240	     88.36297397	    -29.10780812	      0.05458910	      0.07190664	     -0.13583331	   -143.94363865	   -123.89806211	   1235.57379316	     -0.00000000	     -0.00000000	     -0.00000000	      0.03445559	      0.05371547	      0.03445559	      0.08318586	      0.03445559	      0.06480968	      0.03445559	      0.06874135	      0.03445559	      0.05760468	      0.03445559	      0.03815433	      0.91362082	      0.07414686	      0.91362082	      0.17754598	      0.91362082	      0.07194603	      0.91362082	      0.14632043	      0.91362082	      0.44229893	      0.03445559	      0.10453933	      0.03445559	      0.11332234	      0.03445559	      0.08506613	      0.03445559	      0.08809310	      0.03445559	      0.08907821	      0.03445559	      0.09690400	      0.03445559	      0.09015959	      0.91362082	      0.28336050	      0.03445559	      0.08602661	      0.03445559	      0.08553459	      0.03445559	      0.08898195	      0.03445559	      0.10654385	      0.03445559	      0.10045074	      0.03445559	      0.05421712	      0.03445559	      0.02464955	      0.03445559	      0.02610559	      0.03445559	      0.09326624	      0.03445559	      0.08643203	      0.03445559	      0.08506613	      0.03445559	      0.08278995	      0.91362082	      0.06104088	      0.91362082	      0.06477350	      0.03445559	      0.05020265	      0.03445559	      0.03234116	      0.03445559	      0.03413809	      0.03445559	      0.04317463	      0.03445559	      0.09015229	      0.03445559	      0.05024125	      0.03445559	      0.05009954	      0.03445559	      0.08507033	      0.03445559	      0.09878882	      0.03445559	      0.10594964	      0.03445559	      0.05371547	      0.03445559	      0.08318586	      0.03445559	      0.06480968	      0.03445559	      0.06816371	      0.03445559	      0.05622293	      0.03445559	      0.03815433	      0.03445559	      0.07943626	      0.03445559	      0.20822600	      0.03445559	      0.08954127	      0.03445559	      0.16661196	      0.03445559	      0.47150821	      0.03445559	      0.10696385	      0.03445559	      0.11584270	      0.03445559	      0.08506613	      0.03445559	      0.08809310	      0.03445559	      0.09009197	      0.03445559	      0.10635577	      0.03445559	      0.09015959	      0.03445559	      0.31611878	      0.03445559	      0.08602661	      0.03445559	      0.08553459	      0.03445559	      0.09135633	      0.03445559	      0.10658862	      0.03445559	      0.10049681	      0.03445559	      0.05421712	      0.03445559	      0.02595437	      0.03445559	      0.02610559	      0.03445559	      0.10190197	      0.03445559	      0.08643203	      0.03445559	      0.08506613	      0.03445559	      0.08278995	      0.03445559	      0.06022786	      0.03445559	      0.06421434	      0.03445559	      0.05020265	      0.03445559	      0.03231328	      0.03445559	      0.03413809	      0.03445559	      0.04317463	      0.03445559	      0.09015229	      0.03445559	      0.05178640	      0.03445559	      0.05190638	      0.03445559	      0.08223114	      0.03445559	      0.09636050	      0.03445559	      0.10236602	      0.03445559	      0.11948340	      0.03445559	      0.11948340	      0.03445559	      0.09832719	      0.03445559	      0.09832719	      0.03445559	      0.13269720	      0.03445559	      0.13269720
      0.03600000	      0.00000000	     -0.00000000	     -0.00000000	     -0.00067409	      0.00000000	      0.00049854	      0.53086897	      1.60003460	     -0.40554275	     -4.25903712	     -0.45488852	      2.09132530	      0.00971750	     -0.36995882	      0.01206556	    -10.68613179	      2.87388604	     27.32905744	      0.33649959	     -0.70850801	      1.56957018	     -2.69551206	      6.38124852	      4.57364550	      0.00551005	     -0.39602843	      0.01266950	     -2.44673233	      5.36520706	     20.80129581	     -0.00000000	     -0.00000000	     -0.00000000	     -0.00000000	     -0.00000000	     -0.00000000	     -0.03749183	     -0.00000000	      0.00092895	     59.82279339	     11.15525144	     -8.63272949	    -90.85992142	   -111.40067450	    -71.85404157	     -0.13756049	      1.33305320	     -0.21367302	   -535.92666016	    105.21806248	   1858.26601605	     21.40081400	      6.77594874	     42.04400484	    -37.31476619	     86.39604613	    -29.56139251	      0.05549413	      0.07221662	     -0.14873568	   -148.87810623	   -135.97757147	   1274.63005134	     -0.00000000	     -0.00000000	     -0.00000000	      0.03412076	      0.05356192	      0.03412076	      0.08295288	      0.03412076	      0.06462645	      0.03412076	      0.06875118	      0.03412076	      0.05762368	      0.03412076	      0.03804521	      0.91810974	      0.07339733	      0.91810974	      0.17626455	      0.91810974	      0.07092479	      0.91810974	      0.14509680	      0.91810974	      0.44098232	      0.03412076	      0.10448919	      0.03412076	      0.11329604	      0.03412076	      0.08482626	      0.03412076	      0.08775948	      0.03412076	      0.08904415	      0.03412076	      0.09656220	      0.03412076	      0.08988387	      0.91810974	      0.28202780	      0.03412076	      0.08563509	      0.03412076	      0.08512929	      0.03412076	      0.08898889	      0.03412076	      0.10651989	      0.03412076	      0.10044135	      0.03412076	      0.05406215	      0.03412076	      0.02463515	      0.03412076	      0.02603094	      0.03412076	      0.09295193	      0.03412076	      0.08618664	      0.03412076	      0.08482626	      0.03412076	      0.08255835	      0.91810974	      0.06047436	      0.91810974	      0.06417120	      0.03412076	      0.05005909	      0.03412076	      0.03224822	      0.03412076	      0.03404045	      0.03412076	      0.04305116	      0.03412076	      0.08988209	      0.03412076	      0.05015105	      0.03412076	      0.05004112	      0.03412076	      0.08515142	      0.03412076	      0.09895119	      0.03412076	      0.10604719	      0.03412076	      0.05356192	      0.03412076	      0.08295288	      0.03412076	      0.06462645	      0.03412076	      0.06797309	      0.03412076	      0.05606232	      0.03412076	      0.03804521	      0.03412076	      0.07921569	      0.03412076	      0.20816058	      0.03412076	      0.08938369	      0.03412076	      0.16654446	      0.03412076	      0.47140911	      0.03412076	      0.10695000	      0.03412076	      0.11583146	      0.03412076	      0.08482626	      0.03412076	      0.08775948	      0.03412076	      0.09006840	      0.03412076	      0.10631224	      0.03412076	      0.08988387	      0.03412076	      0.31601926	      0.03412076	      0.08563509	      0.03412076	      0.08512929	      0.03412076	      0.09139505	      0.03412076	      0.10657649	      0.03412076	      0.10049473	      0.03412076	      0.05406215	      0.03412076	      0.02597724	      0.03412076	      0.02603094	      0.03412076	      0.10186508	      0.03412076	      0.08618664	      0.03412076	      0.08482626	      0.03412076	      0.08255835	      0.03412076	      0.06005626	      0.03412076	      0.06403252	      0.03412076	      0.05005909	      0.03412076	      0.03228424	      0.03412076	      0.03404045	      0.03412076	      0.04305116	      0.03412076	      0.08988209	      0.03412076	      0.05174063	      0.03412076	      0.05186656	      0.03412076	      0.08226257	      0.03412076	      0.09632795	      0.03412076	      0.10234039	      0.03412076	      0.11948475	      0.03412076	      0.11948475	      0.03412076	      0.09833013	      0.03412076	      0.09833013	      0.03412076	      0.13270226	      0.03412076	      0.13270226
